<svg xmlns="http://www.w3.org/2000/svg" viewBox="0 0 750 500"><g id="freepik--background-complete--inject-89"><rect x="665.89" y="283.03" width="26.48" height="11.19" style="fill:#ebebeb"></rect><rect x="651.12" y="297.14" width="26.48" height="11.19" style="fill:#ebebeb"></rect><rect x="680.66" y="297.14" width="26.48" height="11.19" style="fill:#ebebeb"></rect><rect x="308.31" y="179.88" width="26.48" height="11.19" style="fill:#ebebeb"></rect><rect x="293.54" y="193.99" width="26.48" height="11.19" style="fill:#ebebeb"></rect><rect x="323.08" y="193.99" width="26.48" height="11.19" style="fill:#ebebeb"></rect><rect x="72.4" y="223.92" width="26.48" height="11.19" style="fill:#ebebeb"></rect><rect x="664.36" y="149.87" width="26.48" height="11.19" style="fill:#ebebeb"></rect><rect x="664.36" y="41.19" width="26.48" height="11.19" style="fill:#ebebeb"></rect><rect x="679.13" y="55.3" width="26.48" height="11.19" style="fill:#ebebeb"></rect><rect x="42.86" y="41.2" width="26.48" height="11.19" style="fill:#ebebeb"></rect></g><g id="freepik--Shadows--inject-89"><ellipse cx="375" cy="450.48" rx="133.87" ry="21.85" style="fill:#ebebeb"></ellipse><ellipse cx="200.59" cy="417.62" rx="133.87" ry="21.85" style="fill:#ebebeb"></ellipse><ellipse cx="549.41" cy="417.62" rx="133.87" ry="21.85" style="fill:#ebebeb"></ellipse></g><g id="freepik--Floor--inject-89"><polygon points="48.03 366.6 129.77 366.36 211.51 366.27 375 366.1 538.49 366.27 620.23 366.35 701.97 366.6 620.23 366.84 538.49 366.93 375 367.1 211.51 366.93 129.77 366.84 48.03 366.6" style="fill:#263238"></polygon></g><g id="freepik--Mirrors--inject-89"><path d="M138.88,42.83V366.6H283.34V42.83Zm140,319.28H143.37V47.32H278.85Z" style="fill:#c7c7c7"></path><rect x="143.37" y="47.32" width="135.48" height="314.79" style="fill:#ebebeb"></rect><g style="opacity:0.5"><polygon points="278.85 47.32 278.85 75 143.37 210.47 143.37 181.44 277.49 47.32 278.85 47.32" style="fill:#fff"></polygon><polygon points="278.85 283.89 278.85 312.91 229.65 362.11 200.63 362.11 278.85 283.89" style="fill:#fff"></polygon><polygon points="278.85 134.86 278.85 137.7 143.37 273.18 143.37 270.34 278.85 134.86" style="fill:#fff"></polygon><polygon points="278.85 246.65 278.85 249.49 166.24 362.11 163.4 362.11 278.85 246.65" style="fill:#fff"></polygon><polygon points="187.93 47.32 143.37 91.88 143.37 89.04 185.09 47.32 187.93 47.32" style="fill:#fff"></polygon><polygon points="265.81 47.32 143.37 169.76 143.37 159.6 255.65 47.32 265.81 47.32" style="fill:#fff"></polygon><polygon points="278.85 206.87 278.85 217.03 143.37 352.51 143.37 342.34 278.85 206.87" style="fill:#fff"></polygon><polygon points="278.85 333.18 278.85 343.35 260.09 362.11 249.92 362.11 278.85 333.18" style="fill:#fff"></polygon></g><path d="M611.12,366.6V42.83H466.66V366.6Zm-140-319.28H606.63V362.11H471.15Z" style="fill:#c7c7c7"></path><rect x="471.15" y="47.32" width="135.48" height="314.79" style="fill:#ebebeb"></rect><g style="opacity:0.5"><polygon points="471.15 362.11 471.15 334.43 606.63 198.96 606.63 227.99 472.51 362.11 471.15 362.11" style="fill:#fff"></polygon><polygon points="471.15 125.54 471.15 96.52 520.35 47.32 549.37 47.32 471.15 125.54" style="fill:#fff"></polygon><polygon points="471.15 274.57 471.15 271.73 606.63 136.25 606.63 139.09 471.15 274.57" style="fill:#fff"></polygon><polygon points="471.15 162.78 471.15 159.94 583.76 47.32 586.6 47.32 471.15 162.78" style="fill:#fff"></polygon><polygon points="562.07 362.11 606.63 317.55 606.63 320.39 564.91 362.11 562.07 362.11" style="fill:#fff"></polygon><polygon points="484.19 362.11 606.63 239.67 606.63 249.83 494.35 362.11 484.19 362.11" style="fill:#fff"></polygon><polygon points="471.15 202.56 471.15 192.4 606.63 56.92 606.63 67.09 471.15 202.56" style="fill:#fff"></polygon><polygon points="471.15 76.25 471.15 66.08 489.91 47.32 500.08 47.32 471.15 76.25" style="fill:#fff"></polygon></g></g><g id="freepik--ballet-bar--inject-89"><rect x="371.81" y="-58.3" width="6.38" height="569.19" transform="translate(601.3 -148.7) rotate(90)" style="fill:#c7c7c7"></rect><rect x="371.81" y="-15.59" width="6.38" height="569.19" transform="translate(644 -106) rotate(90)" style="fill:#c7c7c7"></rect><rect x="84.02" y="203.53" width="6.38" height="174.13" style="fill:#263238"></rect><rect x="82.11" y="219.31" width="10.21" height="13.97" style="fill:#263238"></rect><rect x="82.11" y="261.34" width="10.21" height="13.97" style="fill:#263238"></rect><polygon points="116.74 383.19 116.74 384.92 57.69 384.92 57.69 383.19 84.03 377.66 90.41 377.66 116.74 383.19" style="fill:#263238"></polygon><rect x="371.81" y="203.53" width="6.38" height="174.13" style="fill:#263238"></rect><rect x="369.89" y="219.31" width="10.21" height="13.97" style="fill:#263238"></rect><rect x="369.89" y="261.34" width="10.21" height="13.97" style="fill:#263238"></rect><polygon points="404.52 383.19 404.52 384.92 345.48 384.92 345.48 383.19 371.81 377.66 378.19 377.66 404.52 383.19" style="fill:#263238"></polygon><rect x="659.6" y="203.53" width="6.38" height="174.13" style="fill:#263238"></rect><rect x="657.68" y="219.31" width="10.21" height="13.97" style="fill:#263238"></rect><rect x="657.68" y="261.34" width="10.21" height="13.97" style="fill:#263238"></rect><polygon points="692.31 383.19 692.31 384.92 633.26 384.92 633.26 383.19 659.6 377.66 665.98 377.66 692.31 383.19" style="fill:#263238"></polygon></g><g id="freepik--character-3--inject-89"><path d="M520.41,165.59c-5.52-2.44-29-9.54-34.81-17.16-7.42-9.73-17.86-36.34-19.58-43.59-.73-3.13,22.93-8.81,24.4-5.71,3.55,7.52,12.05,33,13.75,36.63,1.09,2.33,17,12.07,25.27,19.64C537,162.23,533.79,171.49,520.41,165.59Z" style="fill: rgb(119, 68, 66);"></path><path d="M470.17,114.6s-9.83-3.81-14.37-7.4a37.18,37.18,0,0,1-10.56-14.36c-2.51-6-4.43-22.25.15-23.62,4.15-1.23,5.27,15.47,5.27,15.47s-4-16.84,1.32-17.42,5.47,18.9,5.47,18.9S453.77,68.77,459.3,69c4.18.2,5.35,17.82,5.35,17.82s-3.06-15,1.25-15c4.76,0,6.86,16.22,6.86,16.22,10.93,1.9,16.69,8.06,18.07,11.91C491.24,101.18,470.17,114.6,470.17,114.6Z" style="fill: rgb(119, 68, 66);"></path><path d="M451.66,90.6c-.54-2-1.09-3.94-1.45-5.94s-.65-4-.83-6a34.44,34.44,0,0,1,.09-8c-.25,4.73.93,11.92,1.29,13.92s.62,4,1,6A0,0,0,1,1,451.66,90.6Z" style="fill:#263238"></path><path d="M458.91,89.44c-.57-2.54-1.24-5-1.7-7.59s-.68-5-1-7.58c0-.2.1-.15.13,0,.38,2.56.94,4.9,1.36,7.45s.74,5.13,1.24,7.66C459,89.47,458.92,89.48,458.91,89.44Z" style="fill:#263238"></path><path d="M465.32,89.55a57.94,57.94,0,0,1-1.72-11.8c0-.2.13-.11.15.09.5,3.93.86,7,1.7,11.68C465.47,89.59,465.34,89.63,465.32,89.55Z" style="fill:#263238"></path><path d="M520.4,165.59c-.87-.39-2.19-.89-3.82-1.49L525,151.7c1.6,1.26,3.1,2.51,4.41,3.7C537,162.23,533.79,171.49,520.4,165.59Z" style="fill:#263238"></path><path d="M592.82,422.82c1.7-1,36.93-40.73,37.3-43.09.16-.9-5.33-6.37-12.16-12.79l-.21-.2c-1.41-1.33-20.16-22.91-20.16-22.91l-25.46,22.89,22.6,25.42.45.37s-6.68,21.25-6.82,23.9S591.13,423.8,592.82,422.82Z" style="fill: rgb(119, 68, 66);"></path><path d="M630.13,379.73c-.38,2.36-35.61,42.12-37.31,43.09s-4.6-3.79-4.46-6.41c.07-1.4,2-8,3.76-13.92-.46,4.79-.86,19.21,29.11-32.45C626.46,375.05,630.26,379,630.13,379.73Z" style="fill:#263238"></path><path d="M604.73,396.5s-8.77-1.56-12,3.77" style="fill:#263238"></path><path d="M547.39,213.11S564,296.81,567,303.06c5.49,11.11,46.4,58.88,46.4,58.88L589.06,385.7S538.28,331,533.72,313.8c-4.64-17.42-14-59.42-16.8-100.69Z" style="fill:#44FF27"></path><path d="M526.69,422.91c-1.92.37-44.07-1.67-45.9-3.21-.71-.57-.14-8.3.82-17.63,0-.09,4.6-33.48,4.6-33.48l34.8,3.68-4.69,29.48s7.7,11.48,9.54,13.38S528.61,422.54,526.69,422.91Z" style="fill: rgb(119, 68, 66);"></path><path d="M526.69,422.91c-1.93.37-44.07-1.67-45.9-3.21-.71-.57-.14-8.3.81-17.63,0,0,.09-.67.25-1.8,2.86,4.29,10.46,14.57,22.26,15,13.3.5,16.06-7.88,16.06-7.88,2.21,3.19,4.74,6.75,5.69,7.73C527.68,417,528.61,422.54,526.69,422.91Z" style="fill:#263238"></path><path d="M486.22,407.13s17.69-8.44,33.95.27" style="fill:#263238"></path><path d="M484.19,383.28,518.51,388s11.25-55.07,12.9-59.84c4-11.52,30.31-69,35.88-79.55,4.84-9.2,4.88-24.19-2.72-35.49H517.88s3.86,12.34,8.79,24.7c0,0-28.68,77.09-30.75,83.74C489.28,342.79,484.19,383.28,484.19,383.28Z" style="fill:#44FF27"></path><path d="M558.3,267.14c-1.69,3.24-3.38,6.47-4.94,9.77s-3.07,6.63-4.61,9.94c-3.09,6.63-6.08,13.32-9,20-1.63,3.77-3.2,7.55-4.62,11.4-.06.14.17.22.24.09.87-1.61,1.75-3.19,2.54-4.84s1.58-3.29,2.36-4.94c1.57-3.3,3.05-6.64,4.59-10,3-6.6,6-13.25,9-19.88,1.7-3.76,3.23-7.6,4.76-11.43C558.69,267.11,558.4,266.93,558.3,267.14Z" style="fill:#263238"></path><path d="M526.43,237.83a87,87,0,0,0-5.17,14.41c0,.09.1.15.14.06,1.08-2.28,4.71-11.87,5.34-14.35A.17.17,0,0,0,526.43,237.83Z" style="fill:#263238"></path><path d="M515.86,194.45l.86,19.35s.63,17.18,9.95,24c0,0,10.68-26.12,39-22.83,0,0-4.63-9.89-8-15.23,0,0-7-34.5-14.35-41.92-6-6-12.71-5.33-16.86-.81-1.05,1.14-13.42,18.78-14.55,25.39C510.94,188.21,515.86,194.45,515.86,194.45Z" style="fill:#37474f"></path><path d="M537,157.1c-.35.8-5.32,5.48-9.09,4.6-1.23-.28,0-7.07,0-7.07l0-.52-.28-7.3,9.21-3.79,1.32-.48s-.05,2-.14,4.5c0,.12,0,.23,0,.35s0,.28,0,.41l0,1.13c0,.29,0,.57,0,.88s0,.59-.06.9A47.56,47.56,0,0,1,537,157.1Z" style="fill: rgb(119, 68, 66);"></path><path d="M538.06,147A14.68,14.68,0,0,1,528,154.11l-.28-7.3,9.21-3.79,1.32-.48S538.15,144.54,538.06,147Z" style="fill:#263238"></path><path d="M519.11,132.69c-4.31,12.09,2.44,16,5,17,2.36.84,10.53,3.41,16.07-8.17s1.28-17.4-4-19.61S523.42,120.6,519.11,132.69Z" style="fill: rgb(119, 68, 66);"></path><path d="M522.09,130a8.46,8.46,0,0,0,.88.11,1.35,1.35,0,0,0,.91,0,.45.45,0,0,0,.19-.53,1.12,1.12,0,0,0-1-.62,1.62,1.62,0,0,0-1.18.2A.49.49,0,0,0,522.09,130Z" style="fill:#263238"></path><path d="M530,132.87a8.53,8.53,0,0,1-.76-.46c-.29-.19-.53-.3-.68-.62a.47.47,0,0,1,.19-.53,1.12,1.12,0,0,1,1.14.13,1.66,1.66,0,0,1,.79.9A.49.49,0,0,1,530,132.87Z" style="fill:#263238"></path><path d="M527.31,135.34s.05.07,0,.1c-.34.8-.59,1.78,0,2.34,0,0,0,.06,0,0C526.51,137.35,526.86,136.05,527.31,135.34Z" style="fill:#263238"></path><path d="M528.36,134.77c1.35.41.44,3.08-.81,2.7S527.23,134.43,528.36,134.77Z" style="fill:#263238"></path><path d="M528.84,135.09c.18.23.32.58.59.7a1,1,0,0,0,1-.25s.05,0,0,.05c-.17.51-.55,1-1.12.86s-.73-.68-.68-1.24C528.64,135.11,528.77,135,528.84,135.09Z" style="fill:#263238"></path><path d="M522.6,133.57s-.07,0-.08.05c-.25.84-.68,1.76-1.52,1.78a0,0,0,0,0,0,0C522,135.63,522.5,134.4,522.6,133.57Z" style="fill:#263238"></path><path d="M522.15,132.46c-1.3-.55-2.29,2.09-1.09,2.6S523.24,132.91,522.15,132.46Z" style="fill:#263238"></path><path d="M521.53,132.42c-.26.06-.56.24-.81.16s-.41-.45-.49-.8c0,0,0,0-.05,0-.2.5-.23,1.09.21,1.37s.9-.06,1.21-.52C521.66,132.57,521.64,132.4,521.53,132.42Z" style="fill:#263238"></path><path d="M525.14,142a1.35,1.35,0,0,1-.85.29,2.33,2.33,0,0,1-.84-.47,0,0,0,0,0-.05,0,1.17,1.17,0,0,0,.93.77.94.94,0,0,0,.88-.55C525.24,142,525.18,141.93,525.14,142Z" style="fill:#263238"></path><path d="M522.75,137.76a18.84,18.84,0,0,0-.81,1.75c0,.05.11.13.3.21h0a3,3,0,0,0,3-.08.07.07,0,0,0-.06-.12,4.38,4.38,0,0,1-2.77-.16c0-.18,1.1-2,1-2a5.24,5.24,0,0,0-1.43-.17c1.19-2.47,2.77-4.74,3.92-7.22,0-.09-.09-.16-.14-.09a44.44,44.44,0,0,0-4.55,7.6C521.13,137.79,522.48,137.78,522.75,137.76Z" style="fill:#263238"></path><path d="M522.39,139.33a3.59,3.59,0,0,0,.81,1.62,1.56,1.56,0,0,0,.85.47c.72.14,1-.44,1.14-1a3.94,3.94,0,0,0,.08-.9A4.65,4.65,0,0,1,522.39,139.33Z" style="fill:#263238"></path><path d="M523.2,141a1.56,1.56,0,0,0,.85.47c.72.14,1-.44,1.14-1A1.65,1.65,0,0,0,523.2,141Z" style="fill:#ff9abb"></path><path d="M540.4,124.21c1.18,2.17,11.16,8.12,17.48-.28s-3.9-20.71-13.31-15.28C538.24,112.3,537.89,119.6,540.4,124.21Z" style="fill:#263238"></path><path d="M539.94,140.84c-1.34-.52-3.71-5.46-1.68-12.13,0,0-1.41,6.12-1.24,7.14s-1.32-2.78.24-8.18a22.94,22.94,0,0,1-6.41,1.08c-2.76-.11-4.3-.63-4.42-.87s4-.22,5.36-1c0,0-7.73,1-10.91.2-.37-.09,1.58-7.6,7.38-9.19s12.3,4.23,13.71,6.86c0,0,2.29,1.12,3.75,5.5S541.4,141.41,539.94,140.84Z" style="fill:#263238"></path><path d="M537.06,140.66s3.72-3.16,5.23-1.73-2,6.51-4.27,6.73a2.17,2.17,0,0,1-2.52-1.86Z" style="fill: rgb(119, 68, 66);"></path><path d="M541.25,140.36s0,0,0,.06a5.47,5.47,0,0,0-3.61,2.6,1.2,1.2,0,0,1,1.82.13,0,0,0,0,1-.06.07,1.34,1.34,0,0,0-1.54.08,6.42,6.42,0,0,0-1,1c-.1.11-.32,0-.23-.15l0,0C537.11,142.23,539.22,140,541.25,140.36Z" style="fill:#263238"></path><path d="M539.5,156.67c-5.17,1.31-1.15,23.23,8.07,23.6S544.78,155.33,539.5,156.67Z" style="fill: rgb(119, 68, 66);"></path><path d="M545,170.07c5.46,2.41,28.31,10.38,37.83,9.2,12.14-1.51,37.68-8.92,44.06-12.77,2.75-1.66-9.74-22.54-13-21.42-7.86,2.72-30,12-33.82,13.28-2.42.84-24.77-.18-36-.65C536.61,157.4,537.06,166.56,545,170.07Z" style="fill: rgb(119, 68, 66);"></path><path d="M626.88,166.5s10.5-1,15.85-3.18a37.44,37.44,0,0,0,14.09-10.92c4-5.09,10.34-20.19,6.31-22.76-3.65-2.33-9.3,13.43-9.3,13.43s8.41-15.12,3.5-17.11-10.43,16.68-10.43,16.68,8.29-15.73,2.9-17c-4.07-1-10,15.68-10,15.68s7-13.57,2.89-14.72c-4.59-1.28-11,13.73-11,13.73-11-1.16-16.76,2.8-20.51,6.1C610.22,147.24,626.88,166.5,626.88,166.5Z" style="fill: rgb(119, 68, 66);"></path><path d="M651.25,148.49c1-1.74,2.13-3.5,3-5.33s1.72-3.68,2.44-5.59a34.76,34.76,0,0,0,2.1-7.67c-1.06,4.62-4.16,11.21-5.05,13s-1.7,3.69-2.59,5.52C651.16,148.5,651.23,148.53,651.25,148.49Z" style="fill:#263238"></path><path d="M644.59,145.38c1.25-2.28,2.57-4.5,3.72-6.84s2-4.63,3-7c.07-.19,0-.17-.13,0-1.08,2.35-2.25,4.45-3.35,6.79s-2.11,4.73-3.29,7A0,0,0,1,0,644.59,145.38Z" style="fill:#263238"></path><path d="M638.4,143.74a58.44,58.44,0,0,0,4.88-10.89c.07-.18-.09-.14-.17.05-1.55,3.65-2.75,6.52-4.83,10.77C638.25,143.73,638.35,143.81,638.4,143.74Z" style="fill:#263238"></path><path d="M550.48,172.21a4.33,4.33,0,0,0-1.54-.44,5.3,5.3,0,0,0-1.73.1A21.71,21.71,0,0,0,543.8,173c-.1,0,0,.17.05.15,1.1-.22,2.22-.4,3.34-.57.54-.09,1.08-.13,1.62-.2a12.79,12.79,0,0,1,1.64,0A.08.08,0,0,0,550.48,172.21Z" style="fill:#263238"></path></g><g id="freepik--character-1--inject-89"><path d="M184.15,124.13c2.13-4.15,9.8-12.78,18.94-8.18,13,6.56,7.78,33.72,12.39,43.89,8.34,18.43,4.69,33.42-6.17,33-12.17-.46-19.95-15.78-12.27-42.22,4.8-16.54,2.12-25.19-1.33-25.6s-6.4,3.29-6.4,3.29Z" style="fill:#263238"></path><path d="M185.07,122.61a27.83,27.83,0,0,1,4.36-5.1,16.3,16.3,0,0,1,5.82-3.51,11.18,11.18,0,0,1,6.89-.11,14.58,14.58,0,0,1,5.93,3.54,16.25,16.25,0,0,1,3.61,5.85,29.87,29.87,0,0,1,1.52,6.61,60,60,0,0,1-.22,13.4,89.94,89.94,0,0,0-.75-13.26,31.93,31.93,0,0,0-1.66-6.32,15.34,15.34,0,0,0-3.4-5.4,13.48,13.48,0,0,0-5.39-3.28,10.41,10.41,0,0,0-6.25-.09,16.78,16.78,0,0,0-5.71,3,27,27,0,0,0-2.49,2.18C186.55,121,185.8,121.76,185.07,122.61Z" style="fill:#263238"></path><path d="M199.46,141.45c-.58,2.67-1.45,5.27-2.22,7.89s-1.6,5.21-2.32,7.83a81,81,0,0,0-1.8,7.93,40.92,40.92,0,0,0-.68,8,21.1,21.1,0,0,0,1.49,7.77,23,23,0,0,0,4.42,6.59A17.07,17.07,0,0,0,205,191.8a15.5,15.5,0,0,0,3.93.85,13.78,13.78,0,0,0,2,0,7.12,7.12,0,0,0,2-.35,10.07,10.07,0,0,1-4,.66,16.32,16.32,0,0,1-4.1-.6,17.14,17.14,0,0,1-3.83-1.66,18.31,18.31,0,0,1-3.32-2.55,21.23,21.23,0,0,1-2.72-3.19l-.58-.86-.55-.89a16.7,16.7,0,0,1-1-1.88,22,22,0,0,1-1.66-8.21A52.82,52.82,0,0,1,194,156.9c.8-2.62,1.73-5.2,2.68-7.76S198.61,144.05,199.46,141.45Z" style="fill:#263238"></path><path d="M183.34,124c.18-1.27,1.38-2.73,2.24-2.82s6.46,3.58,6.71,5.22-2.69,2.55-2.69,2.55Z" style="fill:#44FF27"></path><path d="M165.51,165.59c-5.51-2.44-29-9.54-34.8-17.16-7.42-9.73-17.87-36.34-19.58-43.59-.74-3.13,22.93-8.81,24.39-5.71,3.55,7.52,12,33,13.76,36.63,1.09,2.33,16.95,12.07,25.27,19.64C182.06,162.23,178.9,171.49,165.51,165.59Z" style="fill:#eb9481"></path><path d="M115.28,114.6s-9.83-3.81-14.38-7.4A37.4,37.4,0,0,1,90.34,92.84c-2.5-6-4.42-22.25.16-23.62,4.15-1.23,5.27,15.47,5.27,15.47s-4-16.84,1.31-17.42,5.47,18.9,5.47,18.9S98.88,68.77,104.41,69c4.17.2,5.35,17.82,5.35,17.82s-3.06-15,1.25-15c4.75,0,6.86,16.22,6.86,16.22C128.8,90,134.56,96.19,135.94,100,136.34,101.18,115.28,114.6,115.28,114.6Z" style="fill:#eb9481"></path><path d="M96.76,90.6c-.53-2-1.09-3.94-1.45-5.94s-.65-4-.82-6a34.92,34.92,0,0,1,.08-8c-.24,4.73.94,11.92,1.3,13.92s.61,4,1,6C96.85,90.64,96.78,90.65,96.76,90.6Z" style="fill:#263238"></path><path d="M104,89.44c-.58-2.54-1.24-5-1.71-7.59s-.67-5-1-7.58c0-.2.09-.15.12,0,.39,2.56,1,4.9,1.37,7.45s.73,5.13,1.24,7.66C104.09,89.47,104,89.48,104,89.44Z" style="fill:#263238"></path><path d="M110.43,89.55a57.94,57.94,0,0,1-1.72-11.8c0-.2.12-.11.15.09.5,3.93.86,7,1.7,11.68C110.57,89.59,110.45,89.63,110.43,89.55Z" style="fill:#263238"></path><path d="M165.51,165.59c-.65-.29-1.56-.65-2.67-1.06l8.23-12.09c1.25,1,2.43,2,3.48,3C182.06,162.23,178.9,171.49,165.51,165.59Z" style="fill:#263238"></path><path d="M238,422.82c1.7-1,36.93-40.73,37.31-43.09.16-.9-5.34-6.37-12.16-12.79l-.22-.2c-1.4-1.33-20.15-22.91-20.15-22.91l-25.47,22.89,22.61,25.42.44.37s-6.68,21.25-6.82,23.9S236.28,423.8,238,422.82Z" style="fill:#eb9481"></path><path d="M275.28,379.73c-.38,2.36-35.61,42.12-37.31,43.09s-4.6-3.79-4.46-6.41c.07-1.4,2-8,3.76-13.92-.46,4.79-.86,19.21,29.11-32.45C271.61,375.05,275.41,379,275.28,379.73Z" style="fill:#263238"></path><path d="M192.5,213.11s16.55,83.7,19.64,89.95c5.49,11.11,46.16,58.05,46.16,58.05L234.16,385.7S183.39,331,178.82,313.8c-4.63-17.42-13-59.42-15.8-100.69Z" style="fill:#263238"></path><path d="M171.8,422.91c-1.93.37-44.07-1.67-45.9-3.21-.71-.57-.14-8.3.81-17.63,0-.09,4.61-33.48,4.61-33.48l34.79,3.68-4.68,29.48s7.7,11.48,9.54,13.38S173.72,422.54,171.8,422.91Z" style="fill:#eb9481"></path><path d="M171.8,422.91c-1.93.37-44.07-1.67-45.9-3.21-.71-.57-.14-8.3.81-17.63,0,0,.09-.67.25-1.8,2.86,4.29,10.46,14.57,22.26,15,13.3.5,16.06-7.88,16.06-7.88,2.21,3.19,4.74,6.75,5.69,7.73C172.79,417,173.72,422.54,171.8,422.91Z" style="fill:#263238"></path><path d="M129.3,383.28,163.62,388s11.25-55.07,12.9-59.84c4-11.52,31.08-68.6,35.87-79.55,4.25-9.7,4.89-24.19-2.71-35.49H164a193.91,193.91,0,0,0,7.79,24.7S143.1,314.87,141,321.52C134.39,342.79,129.3,383.28,129.3,383.28Z" style="fill:#263238"></path><path d="M203.94,267.26c-1.83,3.16-3.36,6.48-4.9,9.79s-3.11,6.61-4.64,9.93q-4.59,10-9.07,20c-1.71,3.81-3.19,7.7-4.77,11.56,0,.09.09.17.13.08,1.66-3.3,3.37-6.57,5-9.89s3.12-6.7,4.65-10.06q4.56-10,9-20c1.67-3.73,3.39-7.45,4.72-11.32C204.09,267.24,204,267.2,203.94,267.26Z" style="fill:#455a64"></path><path d="M171.44,237.37c-1,2.13-1.78,4.31-2.53,6.52a40.71,40.71,0,0,0-1.91,6.85.08.08,0,0,0,.15,0c1-2.06,1.71-4.32,2.51-6.47s1.67-4.44,2.46-6.68C172.26,237.25,171.61,237,171.44,237.37Z" style="fill:#455a64"></path><path d="M161,192.45l1.86,21.35s-.37,17.18,8.95,24c0,0,10.68-26.12,39-22.83,0,0-4.63-9.89-8-15.23,0,0-7-34.5-14.35-41.92-6-6-12.71-5.33-16.86-.81-1.05,1.14-13.42,16.78-14.56,23.39C156.05,186.21,161,192.45,161,192.45Z" style="fill:#455a64"></path><path d="M181.81,157.1c-.35.8-5.31,5.48-9.09,4.6-1.23-.28,0-7.07,0-7.07l0-.52-.29-7.3,9.21-3.79,1.32-.48s0,2-.14,4.5c0,.12,0,.23,0,.35v.41c0,.37,0,.75,0,1.13s0,.57-.05.88l-.06.9A47.56,47.56,0,0,1,181.81,157.1Z" style="fill:#eb9481"></path><path d="M182.84,147a14.66,14.66,0,0,1-10.1,7.07l-.29-7.3,9.21-3.79,1.32-.48S182.93,144.54,182.84,147Z" style="fill:#263238"></path><path d="M163.89,132.69c-4.31,12.09,2.44,16,5.05,17,2.37.84,10.53,3.41,16.07-8.17s1.28-17.4-4-19.61S168.21,120.6,163.89,132.69Z" style="fill:#eb9481"></path><path d="M166.87,130a8.46,8.46,0,0,0,.88.11,1.38,1.38,0,0,0,.92,0,.46.46,0,0,0,.18-.53,1.1,1.1,0,0,0-1-.62,1.63,1.63,0,0,0-1.18.2A.49.49,0,0,0,166.87,130Z" style="fill:#263238"></path><path d="M174.79,132.87a8.53,8.53,0,0,1-.76-.46c-.28-.19-.53-.3-.68-.62a.47.47,0,0,1,.19-.53,1.12,1.12,0,0,1,1.14.13,1.66,1.66,0,0,1,.79.9A.49.49,0,0,1,174.79,132.87Z" style="fill:#263238"></path><path d="M172.09,135.34s0,.07,0,.1c-.33.8-.59,1.78,0,2.34,0,0,0,.06,0,0C171.29,137.35,171.64,136.05,172.09,135.34Z" style="fill:#263238"></path><path d="M173.15,134.77c1.35.41.44,3.08-.81,2.7S172,134.43,173.15,134.77Z" style="fill:#263238"></path><path d="M173.62,135.09c.18.23.32.58.59.7a1,1,0,0,0,1-.25s.05,0,0,.05c-.17.51-.54,1-1.12.86s-.73-.68-.68-1.24C173.42,135.11,173.55,135,173.62,135.09Z" style="fill:#263238"></path><path d="M167.39,133.57s-.08,0-.09.05c-.25.84-.68,1.76-1.52,1.78,0,0,0,0,0,0C166.73,135.63,167.28,134.4,167.39,133.57Z" style="fill:#263238"></path><path d="M166.93,132.46c-1.3-.55-2.29,2.09-1.08,2.6S168,132.91,166.93,132.46Z" style="fill:#263238"></path><path d="M166.32,132.42c-.26.06-.57.24-.82.16s-.4-.45-.49-.8c0,0,0,0,0,0-.2.5-.23,1.09.22,1.37s.89-.06,1.2-.52C166.44,132.57,166.42,132.4,166.32,132.42Z" style="fill:#263238"></path><path d="M169.92,142a1.35,1.35,0,0,1-.85.29,2.33,2.33,0,0,1-.84-.47,0,0,0,0,0,0,0,1.2,1.2,0,0,0,.94.77A.94.94,0,0,0,170,142C170,142,170,141.93,169.92,142Z" style="fill:#263238"></path><path d="M167.53,137.76a18.84,18.84,0,0,0-.81,1.75c0,.05.11.13.3.21h0a2.94,2.94,0,0,0,3-.08.07.07,0,0,0-.06-.12,4.38,4.38,0,0,1-2.77-.16c0-.18,1.1-2,1-2a5.22,5.22,0,0,0-1.42-.17c1.19-2.47,2.76-4.74,3.91-7.22a.08.08,0,0,0-.14-.09,43.75,43.75,0,0,0-4.54,7.6C165.91,137.79,167.26,137.78,167.53,137.76Z" style="fill:#263238"></path><path d="M167.17,139.33A3.59,3.59,0,0,0,168,141a1.56,1.56,0,0,0,.85.47c.72.14,1-.44,1.14-1a3.94,3.94,0,0,0,.08-.9A4.65,4.65,0,0,1,167.17,139.33Z" style="fill:#263238"></path><path d="M168,141a1.56,1.56,0,0,0,.85.47c.72.14,1-.44,1.14-1A1.65,1.65,0,0,0,168,141Z" style="fill:#ff9abb"></path><path d="M184.67,140.92c-2.94-1-1.31-5.61-1.31-5.61s-3.23-1.46-1.61-6.92a8.61,8.61,0,0,1-7.47,1.78c-1-.19,3.06-1.55,3.06-1.55s-5.05,2.14-11.71-1.65c-.47-.27,2.91-8.33,9.39-9s11.31,3.49,13.54,8.22c0,0,4.35,4.49,3.46,8.53S185.82,141.31,184.67,140.92Z" style="fill:#263238"></path><path d="M181.84,140.66s3.73-3.16,5.23-1.73-2,6.51-4.27,6.73a2.16,2.16,0,0,1-2.51-1.86Z" style="fill:#eb9481"></path><path d="M186,140.36s0,0,0,.06a5.49,5.49,0,0,0-3.62,2.6,1.2,1.2,0,0,1,1.82.13,0,0,0,0,1-.06.07,1.34,1.34,0,0,0-1.54.08,6.91,6.91,0,0,0-1,1c-.1.11-.32,0-.23-.15l0,0C181.89,142.23,184,140,186,140.36Z" style="fill:#263238"></path><path d="M184.7,156.67c-5.17,1.31-1.15,23.23,8.06,23.59S190,155.33,184.7,156.67Z" style="fill:#eb9481"></path><path d="M189.93,170.73c5.46,2.42,28.57,9.71,38.08,8.53,12.15-1.5,37.69-8.91,44.07-12.76,2.75-1.66-9.74-22.55-13-21.42-7.85,2.72-30,12-33.81,13.27-2.42.85-24.77-.18-36-.65C181.81,157.39,182,167.22,189.93,170.73Z" style="fill:#eb9481"></path><path d="M272.08,166.5s10.5-1,15.85-3.19A37.2,37.2,0,0,0,302,152.39c4.06-5.09,10.35-20.19,6.32-22.76-3.66-2.32-9.3,13.44-9.3,13.44S307.44,128,302.52,126s-10.42,16.68-10.42,16.68,8.29-15.73,2.9-17c-4.07-1-10,15.68-10,15.68s7-13.57,2.89-14.73c-4.59-1.27-11,13.73-11,13.73-11-1.16-16.77,2.8-20.51,6.11C255.42,147.23,272.08,166.5,272.08,166.5Z" style="fill:#eb9481"></path><path d="M296.45,148.48c1.05-1.74,2.13-3.49,3-5.32s1.73-3.69,2.45-5.59a35.83,35.83,0,0,0,2.1-7.67c-1.06,4.61-4.16,11.2-5.06,13s-1.69,3.7-2.58,5.52C296.36,148.5,296.43,148.52,296.45,148.48Z" style="fill:#263238"></path><path d="M289.79,145.38c1.25-2.28,2.57-4.5,3.72-6.84s2-4.63,3-7c.07-.18-.05-.16-.13,0-1.08,2.36-2.25,4.45-3.35,6.8s-2.11,4.73-3.29,7A0,0,0,1,0,289.79,145.38Z" style="fill:#263238"></path><path d="M283.6,143.74a58.44,58.44,0,0,0,4.88-10.89c.07-.19-.09-.14-.17,0-1.55,3.65-2.75,6.53-4.83,10.77C283.45,143.73,283.55,143.81,283.6,143.74Z" style="fill:#263238"></path><path d="M196.1,173.09a4.33,4.33,0,0,0-1.54-.44,5.31,5.31,0,0,0-1.73.1,21.67,21.67,0,0,0-3.41,1.14.08.08,0,0,0,.05.15c1.1-.21,2.22-.4,3.34-.57.54-.08,1.08-.12,1.62-.2a11.2,11.2,0,0,1,1.64,0A.08.08,0,0,0,196.1,173.09Z" style="fill:#263238"></path><path d="M162.83,213.8a8.39,8.39,0,0,0,7.92,4.56c5.76-.22,27.85-11.67,32.05-18.64,0,0,9.85,14.43,13.06,26s13.25,49.32,13.59,50.65-38.74,17.39-47.95,17.06-31.89-8.49-32.67-9.05,12.5-28.53,13-32.23C162.23,249.76,162.83,213.8,162.83,213.8Z" style="fill:#44FF27;opacity:0.7000000000000001"></path></g><g id="freepik--character-2--inject-89"><path d="M337.76,175.2c-6.07-2.68-31.92-10.5-38.32-18.89-8.17-10.72-19.67-40-21.55-48-.82-3.44,25.24-9.7,26.85-6.28,3.91,8.28,13.27,36.35,15.14,40.33,1.21,2.56,18.67,13.29,27.82,21.62C356,171.51,352.5,181.7,337.76,175.2Z" style="fill: rgb(235, 148, 129);"></path><path d="M282.45,119.06s-10.82-4.19-15.83-8.15A41,41,0,0,1,255,95.11c-2.76-6.61-4.88-24.5.17-26,4.57-1.36,5.8,17,5.8,17S256.62,67.59,262.42,67s6,20.8,6,20.8-4.05-19.16,2-18.86c4.6.22,5.89,19.62,5.89,19.62S273,72,277.75,72.06c5.23,0,7.55,17.86,7.55,17.86,12,2.09,18.38,8.88,19.9,13.11C305.64,104.28,282.45,119.06,282.45,119.06Z" style="fill: rgb(235, 148, 129);"></path><path d="M262.07,92.64c-.59-2.16-1.2-4.34-1.6-6.54s-.72-4.43-.91-6.66a39.27,39.27,0,0,1,.09-8.76c-.27,5.21,1,13.12,1.43,15.33s.68,4.42,1.07,6.62A0,0,0,1,1,262.07,92.64Z" style="fill:#263238"></path><path d="M270.06,91.36c-.64-2.79-1.37-5.54-1.88-8.36s-.75-5.51-1.06-8.35c0-.21.1-.16.13.06.43,2.82,1,5.39,1.5,8.21s.81,5.64,1.37,8.43C270.13,91.39,270.07,91.4,270.06,91.36Z" style="fill:#263238"></path><path d="M277.11,91.49a63.43,63.43,0,0,1-1.89-13c0-.22.13-.13.16.1.55,4.33.95,7.73,1.88,12.86C277.27,91.53,277.14,91.58,277.11,91.49Z" style="fill:#263238"></path><path d="M337.76,175.2c-1.43-.63-4-1.55-7.09-2.69l9.82-14.43c2.64,2,5.14,4,7.21,5.9C356,171.51,352.5,181.7,337.76,175.2Z" style="fill:#263238"></path><path d="M417.54,458.41c1.87-1.07,40.65-44.84,41.07-47.45.18-1-5.87-7-13.39-14.07l-.24-.22c-1.54-1.46-22.19-25.23-22.19-25.23l-28,25.21,24.89,28,.49.41s-7.35,23.39-7.51,26.31S415.67,459.49,417.54,458.41Z" style="fill:#37474f"></path><path d="M367.47,227.52s18.23,92.16,21.63,99c6,12.22,50.16,64.58,50.16,64.58l-25.92,26.4s-55.9-60.26-60.93-79.17c-5.1-19.17-17.58-65.41-20.63-110.85Z" style="fill:#37474f"></path><path d="M344.68,458.5c-2.12.42-48.52-1.83-50.54-3.52-.78-.63-.15-9.15.9-19.41,0-.11,5.07-36.86,5.07-36.86l38.31,4.05-5.16,32.45s8.48,12.64,10.5,14.74S346.79,458.1,344.68,458.5Z" style="fill:#37474f"></path><path d="M297.89,414.87,335.68,420s12.38-60.62,14.2-65.88c4.38-12.68,34.6-75.36,39.49-87.58,2.2-5.49,5.38-26.63-3-39.08h-50.3a146.32,146.32,0,0,0,7.61,26.63s-30.61,85.44-32.89,92.77C303.49,370.3,297.89,414.87,297.89,414.87Z" style="fill:#37474f"></path><path d="M379.58,288c-1.08,1.69-2,3.49-3,5.25s-1.87,3.46-2.73,5.23c-1.75,3.57-3.4,7.18-5.09,10.78-3.33,7.13-6.59,14.29-9.65,21.53-.83,2-1.65,3.94-2.43,5.93-.41,1-.85,2.07-1.21,3.13a12.34,12.34,0,0,0-.85,3c0,.07.09.1.13.05a10.3,10.3,0,0,0,1.3-2.31c.48-.93.89-1.88,1.32-2.83.8-1.8,1.59-3.59,2.38-5.39,1.6-3.64,3.18-7.28,4.79-10.91q4.79-10.79,9.92-21.42c.95-1.95,1.84-3.93,2.72-5.92s1.84-4,2.61-6C379.89,287.91,379.66,287.84,379.58,288Z" style="fill:#263238"></path><path d="M353.2,257.94a62.93,62.93,0,0,1-8.84-5.31c-1.39-.95-2.72-2-4-3a50,50,0,0,1-3.75-3.67c0-.06-.17,0-.12.08a24.73,24.73,0,0,0,3.06,4.21,26.31,26.31,0,0,0,3.94,3.74,23.9,23.9,0,0,0,9.68,4.23C353.29,258.19,353.31,258,353.2,257.94Z" style="fill:#263238"></path><path d="M344,253.22c-1.44,2.93-2.56,6.06-3.73,9.11a65.41,65.41,0,0,0-3,9.54.09.09,0,0,0,.17.06,56.54,56.54,0,0,0,3.88-9.06,89.08,89.08,0,0,0,2.89-9.56C344.22,253.17,344,253.08,344,253.22Z" style="fill:#263238"></path><path d="M386.86,228.2c-.13.17-55.39,1-56,.38-.8-.86,3.81-53,13.35-66.51,2.38-3.38,10.94-4.69,14.73-1.48C375.09,174.24,387.35,227.61,386.86,228.2Z" style="fill: rgb(235, 148, 129);"></path><path d="M347.69,169.51c2.57.33,8.32-4,10.74-7.91.17-.27-.09-3.19-.22-6.75-.08-2.16-.11-4.57,0-6.77l-14,2.55a35,35,0,0,1,.84,8.52,4.23,4.23,0,0,1-.15.9,1.31,1.31,0,0,1,0,.15C344.52,161.9,343.68,169,347.69,169.51Z" style="fill: rgb(235, 148, 129);"></path><path d="M344.93,160.05a1.55,1.55,0,0,0,0,.15,8.67,8.67,0,0,0,1.42.16c7.86.28,10.33-9.17,10.9-12.1l-13,2.36a35.43,35.43,0,0,1,.85,8.54A6.13,6.13,0,0,1,344.93,160.05Z" style="fill:#263238"></path><path d="M362.67,133.08c.27,5.12-5.63,18.24-9.77,20.47-6,3.24-14.14,1.68-16.46-5.15-2.25-6.62,5.75-23.59,10.21-25.44C353.23,120.23,362.26,125.52,362.67,133.08Z" style="fill: rgb(235, 148, 129);"></path><path d="M348.14,137.63s.05.07,0,.11c-.44.87-.78,1.93-.12,2.59,0,0,0,.07,0,0C347.12,139.79,347.6,138.38,348.14,137.63Z" style="fill:#263238"></path><path d="M349.35,137.07c1.47.54.28,3.44-1.08,2.93S348.12,136.61,349.35,137.07Z" style="fill:#263238"></path><path d="M342.92,135.26s-.09,0-.1.05c-.34.91-.89,1.89-1.82,1.85,0,0-.05.05,0,.06C342,137.49,342.74,136.17,342.92,135.26Z" style="fill:#263238"></path><path d="M342.51,134c-1.4-.7-2.71,2.14-1.41,2.8S343.68,134.58,342.51,134Z" style="fill:#263238"></path><path d="M351,136.22a12.84,12.84,0,0,1-1-.86,2.13,2.13,0,0,1-.81-1.06.67.67,0,0,1,.41-.7,1.65,1.65,0,0,1,1.59.47,2.46,2.46,0,0,1,.89,1.5A.71.71,0,0,1,351,136.22Z" style="fill:#263238"></path><path d="M342,132.45c.43.1.84.12,1.28.18a2.09,2.09,0,0,0,1.33-.07.65.65,0,0,0,.27-.76,1.64,1.64,0,0,0-1.39-.91,2.37,2.37,0,0,0-1.71.29A.7.7,0,0,0,342,132.45Z" style="fill:#263238"></path><path d="M345.54,146.29a1.45,1.45,0,0,1-1,.21,2.53,2.53,0,0,1-.87-.62s-.06,0-.06,0a1.31,1.31,0,0,0,.94,1,1,1,0,0,0,1-.5C345.65,146.32,345.59,146.27,345.54,146.29Z" style="fill:#263238"></path><path d="M345.71,143.22a3.29,3.29,0,0,1-2.6.51,3.75,3.75,0,0,1-1.12-.4l-.2-.11-.18-.11a.24.24,0,0,1-.1-.27h0l.05-.09h0l0-.07c.26-.7.76-1.72.76-1.72-.3,0-1.83.07-1.66-.29a49.58,49.58,0,0,1,5-8.74.09.09,0,0,1,.15.09c-1.24,2.85-3,5.46-4.27,8.31a5.92,5.92,0,0,1,1.62.15c.08.07-1,2-1.1,2.28a.1.1,0,0,0,0,0,4.55,4.55,0,0,0,3.57.32C345.74,143.08,345.79,143.17,345.71,143.22Z" style="fill:#263238"></path><path d="M342.54,143.15a3.87,3.87,0,0,0,1,1.72,1.75,1.75,0,0,0,1,.47c.8.11,1.08-.54,1.19-1.16a4.33,4.33,0,0,0,0-1A5.06,5.06,0,0,1,342.54,143.15Z" style="fill:#263238"></path><path d="M343.53,144.87a1.75,1.75,0,0,0,1,.47c.8.11,1.08-.54,1.19-1.16A1.83,1.83,0,0,0,343.53,144.87Z" style="fill:#ff9abb"></path><path d="M347.86,127a5.42,5.42,0,0,0,3.15,4.26,5.56,5.56,0,0,0,5.4-.44s.09,0,0,.07a5.49,5.49,0,0,1-5.62.78,5.61,5.61,0,0,1-3.12-4.65A.07.07,0,0,1,347.86,127Z" style="fill:#263238"></path><path d="M358.62,119.94a5.89,5.89,0,0,1,3.92,5.22,8,8,0,0,1-.84,3.93s-.1,0-.08,0a7.36,7.36,0,0,0-.35-6.44,4.92,4.92,0,0,0-8-.68.1.1,0,0,1-.15-.13A5.09,5.09,0,0,1,358.62,119.94Z" style="fill:#263238"></path><path d="M341.41,115.35a6.58,6.58,0,0,1,4.28-1.44c2.15,0,3.8,1.32,5.4,2.62.05,0,0,.1,0,.07a9.1,9.1,0,0,0-4.62-2.33,6.5,6.5,0,0,0-4.23,1,6.32,6.32,0,0,0-2.09,8,6.43,6.43,0,0,0,4,3.18c.06,0,.05.13,0,.11a6.44,6.44,0,0,1-2.63-11.21Z" style="fill:#263238"></path><path d="M362.36,136.47s2.11-3.85,1.86-5.6-2.22-3.34-2.22-3.34.73-3.93-2.14-6c-2.58-1.88-5.89-.64-5.89-.64s-1.41-6-7-6.61c-5.3-.54-8.65,5.94-6,10.37,1.88,3.11,7.18,3.08,7.18,3.08.33.28,2.57,4.86,7.46,3.38,0,0,1.29,3.55,3.61,3.08C359.26,134.17,360.63,136.31,362.36,136.47Z" style="fill:#263238"></path><path d="M358.13,139.18c.1,1.87.19,6.77,1,6.26,2.15-4.59,3.72-9.9,3.49-12.71a9.81,9.81,0,0,0-1-3.61.59.59,0,0,0,0-.08S358,137.25,358.13,139.18Z" style="fill:#263238;opacity:0.2"></path><path d="M357,143.56s4.28-3.6,6-1.95-2.33,7.42-4.92,7.67a2.49,2.49,0,0,1-2.87-2.15Z" style="fill: rgb(235, 148, 129);"></path><path d="M361.75,143.24a0,0,0,0,1,0,.06,6.32,6.32,0,0,0-4.15,2.95,1.38,1.38,0,0,1,2.08.17s0,.1-.07.08a1.52,1.52,0,0,0-1.76.08,6.91,6.91,0,0,0-1.13,1.1c-.12.13-.36,0-.26-.18l0,0C357,145.35,359.44,142.84,361.75,143.24Z" style="fill:#263238"></path><path d="M386.87,228.2c-.15.17-55.4,1-56,.38-.77-.83,3.5-49.58,12.41-65-1,5.63-2.66,17.79,2,18.85,5.07,1.16,12.48-15.42,14.76-20.84C375.69,176.63,387.34,227.63,386.87,228.2Z" style="fill:#44FF27"></path><path d="M360.35,164c-5.69,1.44-1.27,25.58,8.88,26S366.16,162.51,360.35,164Z" style="fill: rgb(235, 148, 129);"></path><path d="M366.34,179c6,2.66,31.22,11.17,41.7,9.87,13.37-1.66,41.49-9.81,48.52-14.05,3-1.83-10.73-24.83-14.3-23.59-8.65,3-33.07,13.17-37.23,14.62-2.67.93-27.28-.2-39.64-.72C357.17,164.78,357.61,175.12,366.34,179Z" style="fill: rgb(235, 148, 129);"></path><path d="M456.56,174.81s11.55-1.07,17.45-3.51a41,41,0,0,0,15.5-12c4.47-5.6,11.39-22.22,6.95-25.05-4-2.56-10.24,14.79-10.24,14.79s9.26-16.65,3.85-18.84-11.48,18.36-11.48,18.36,9.13-17.32,3.2-18.7c-4.49-1-11,17.26-11,17.26s7.75-14.93,3.18-16.21c-5-1.4-12.15,15.12-12.15,15.12-12.15-1.28-18.46,3.08-22.57,6.72C438.21,153.6,456.56,174.81,456.56,174.81Z" style="fill: rgb(235, 148, 129);"></path><path d="M483.39,155c1.15-1.91,2.34-3.85,3.32-5.86s1.9-4.06,2.7-6.15a38,38,0,0,0,2.3-8.45c-1.16,5.08-4.57,12.34-5.56,14.35s-1.86,4.07-2.84,6.08C483.28,155,483.36,155,483.39,155Z" style="fill:#263238"></path><path d="M476.05,151.55c1.38-2.51,2.83-5,4.1-7.52s2.22-5.1,3.3-7.74c.08-.21-.06-.18-.15,0-1.18,2.59-2.47,4.9-3.68,7.48s-2.33,5.21-3.63,7.73A0,0,0,1,0,476.05,151.55Z" style="fill:#263238"></path><path d="M469.23,149.74a63.5,63.5,0,0,0,5.38-12c.07-.2-.1-.16-.19.05-1.71,4-3,7.18-5.32,11.86C469.07,149.74,469.18,149.82,469.23,149.74Z" style="fill:#263238"></path><path d="M372.9,181.4a4.13,4.13,0,0,0-1.54-.44,5,5,0,0,0-1.72.1,21.44,21.44,0,0,0-3.42,1.14.08.08,0,0,0,0,.15c1.1-.22,2.22-.4,3.34-.57.54-.08,1.08-.12,1.62-.2a11.2,11.2,0,0,1,1.64,0A.08.08,0,0,0,372.9,181.4Z" style="fill:#263238"></path></g><g id="freepik--musical-notes--inject-89"><path d="M229.57,210.84a3.1,3.1,0,1,1-2.47-3.62A3.1,3.1,0,0,1,229.57,210.84Z" style="fill:#455a64"></path><rect x="228.69" y="195.12" width="2.37" height="15.6" transform="translate(41.96 -39.37) rotate(10.77)" style="fill:#455a64"></rect><path d="M240.28,208.29a3.1,3.1,0,1,1-2.46-3.63A3.1,3.1,0,0,1,240.28,208.29Z" style="fill:#455a64"></path><rect x="239.4" y="192.56" width="2.37" height="15.6" transform="translate(41.67 -41.42) rotate(10.77)" style="fill:#455a64"></rect><polygon points="243.2 192.95 229.77 197.09 230.16 195.04 243.59 190.91 243.2 192.95" style="fill:#455a64"></polygon><polygon points="242.47 196.82 229.04 200.95 229.43 198.9 242.86 194.77 242.47 196.82" style="fill:#455a64"></polygon><path d="M341.93,103a3.1,3.1,0,1,1-2.47-3.63A3.11,3.11,0,0,1,341.93,103Z" style="fill:#455a64"></path><rect x="341.04" y="87.32" width="2.37" height="15.6" transform="translate(23.79 -62.26) rotate(10.77)" style="fill:#455a64"></rect><path d="M352.64,100.48a3.1,3.1,0,1,1-2.47-3.63A3.11,3.11,0,0,1,352.64,100.48Z" style="fill:#455a64"></path><rect x="351.75" y="84.76" width="2.37" height="15.6" transform="translate(23.5 -64.3) rotate(10.77)" style="fill:#455a64"></rect><polygon points="355.56 85.15 342.13 89.28 342.52 87.23 355.95 83.1 355.56 85.15" style="fill:#455a64"></polygon><polygon points="354.82 89.01 341.39 93.14 341.79 91.09 355.21 86.96 354.82 89.01" style="fill:#455a64"></polygon><path d="M579.08,140.1a3.1,3.1,0,1,1-2.47-3.63A3.11,3.11,0,0,1,579.08,140.1Z" style="fill:#455a64"></path><rect x="578.19" y="124.37" width="2.37" height="15.6" transform="translate(34.89 -105.91) rotate(10.77)" style="fill:#455a64"></rect><path d="M589.79,137.54a3.1,3.1,0,1,1-2.47-3.63A3.11,3.11,0,0,1,589.79,137.54Z" style="fill:#455a64"></path><rect x="588.91" y="121.82" width="2.37" height="15.6" transform="translate(34.6 -107.95) rotate(10.77)" style="fill:#455a64"></rect><polygon points="592.71 122.2 579.28 126.34 579.67 124.29 593.1 120.16 592.71 122.2" style="fill:#455a64"></polygon><polygon points="591.98 126.07 578.55 130.2 578.94 128.15 592.37 124.02 591.98 126.07" style="fill:#455a64"></polygon><path d="M247.07,243.48a3.1,3.1,0,1,1-2.47-3.63A3.11,3.11,0,0,1,247.07,243.48Z" style="fill:#455a64"></path><rect x="246.18" y="227.75" width="2.37" height="15.6" transform="translate(48.36 -42.06) rotate(10.77)" style="fill:#455a64"></rect><rect x="255.88" y="225.41" width="2.37" height="4.51" transform="translate(47.06 -44.01) rotate(10.77)" style="fill:#455a64"></rect><polygon points="258.54 226.26 247.27 229.72 247.66 227.67 258.93 224.21 258.54 226.26" style="fill:#455a64"></polygon><polygon points="257.8 230.12 246.53 233.58 246.93 231.53 258.19 228.07 257.8 230.12" style="fill:#455a64"></polygon><path d="M105.85,153.61a3.1,3.1,0,1,1-2.47-3.63A3.11,3.11,0,0,1,105.85,153.61Z" style="fill:#455a64"></path><rect x="104.97" y="137.88" width="2.37" height="15.6" transform="translate(29.08 -17.27) rotate(10.77)" style="fill:#455a64"></rect><rect x="114.66" y="135.54" width="2.37" height="4.51" transform="translate(27.78 -19.22) rotate(10.77)" style="fill:#455a64"></rect><polygon points="117.32 136.39 106.06 139.85 106.44 137.8 117.71 134.34 117.32 136.39" style="fill:#455a64"></polygon><polygon points="116.59 140.25 105.32 143.71 105.71 141.66 116.98 138.2 116.59 140.25" style="fill:#455a64"></polygon><path d="M367,71.05a3.1,3.1,0,1,1-2.47-3.63A3.11,3.11,0,0,1,367,71.05Z" style="fill:#455a64"></path><rect x="366.16" y="55.33" width="2.37" height="15.6" transform="translate(18.26 -67.51) rotate(10.77)" style="fill:#455a64"></rect><rect x="375.85" y="52.98" width="2.37" height="4.51" transform="translate(16.96 -69.46) rotate(10.77)" style="fill:#455a64"></rect><polygon points="378.51 53.83 367.24 57.29 367.63 55.24 378.9 51.78 378.51 53.83" style="fill:#455a64"></polygon><polygon points="377.78 57.7 366.51 61.16 366.9 59.11 378.17 55.65 377.78 57.7" style="fill:#455a64"></polygon></g><g id="freepik--speech-bubble--inject-89"><path d="M377.79,122.81a12.12,12.12,0,0,1-2.08-6.7c0-8.5,9.33-15.39,20.84-15.39s20.82,6.89,20.82,15.39-9.32,15.38-20.82,15.38a25,25,0,0,1-14.37-4.25L375,129.06Z" style="fill:#fff"></path><path d="M377.79,122.81a12.06,12.06,0,0,1-2.19-6.33,12.21,12.21,0,0,1,1.63-6.57,16.24,16.24,0,0,1,4.59-5,21.86,21.86,0,0,1,6.07-3.13,27.27,27.27,0,0,1,13.53-1,22.71,22.71,0,0,1,12.22,5.94,14.58,14.58,0,0,1,3.67,5.86,11.89,11.89,0,0,1,.06,6.94,14.35,14.35,0,0,1-3.58,5.92,20.15,20.15,0,0,1-5.62,4,27,27,0,0,1-13.35,2.44A24.82,24.82,0,0,1,382,127.42l.19,0-7.2,1.72-.25.06.11-.23Zm0,0-2.68,6.3-.14-.17,7.15-1.93.1,0,.09.06a24.42,24.42,0,0,0,12.55,4,27.73,27.73,0,0,0,6.63-.47,24,24,0,0,0,6.3-2.05,19.3,19.3,0,0,0,5.34-3.82,13.4,13.4,0,0,0,3.31-5.54,10.92,10.92,0,0,0-.09-6.38,13.44,13.44,0,0,0-3.39-5.49,21.76,21.76,0,0,0-11.69-5.75,27.82,27.82,0,0,0-13.16.84,18.82,18.82,0,0,0-10.51,7.71,12,12,0,0,0-1.76,6.34A12.3,12.3,0,0,0,377.79,122.81Z" style="fill:#263238"></path><path d="M404,116.11A2.16,2.16,0,1,0,406.2,114,2.16,2.16,0,0,0,404,116.11Z" style="fill:#263238"></path><path d="M394.38,116.11a2.16,2.16,0,1,0,2.16-2.16A2.16,2.16,0,0,0,394.38,116.11Z" style="fill:#263238"></path><path d="M384.73,116.11a2.16,2.16,0,1,0,2.16-2.16A2.16,2.16,0,0,0,384.73,116.11Z" style="fill:#263238"></path></g></svg>